HIERARCHY
ROOT Hips
{
	OFFSET	0.00	0.00	0.00
	CHANNELS 6 Xposition Yposition Zposition Zrotation Xrotation Yrotation
	JOINT LeftHip
	{
		OFFSET	 3.430000	 0.000000	 0.000000
		CHANNELS 3 Zrotation Xrotation Yrotation
		JOINT LeftKnee
		{
			OFFSET	 0.000000	-18.469999	 0.000000
			CHANNELS 3 Zrotation Xrotation Yrotation
			JOINT LeftAnkle
			{
				OFFSET	 0.000000	-17.950001	 0.000000
				CHANNELS 3 Zrotation Xrotation Yrotation
				End Site 
				{
					OFFSET	 0.000000	-3.119996	 0.000000
				}
			}
		}
	}
	JOINT RightHip
	{
		OFFSET	-3.430000	 0.000000	 0.000000
		CHANNELS 3 Zrotation Xrotation Yrotation
		JOINT RightKnee
		{
			OFFSET	 0.000000	-18.809999	 0.000000
			CHANNELS 3 Zrotation Xrotation Yrotation
			JOINT RightAnkle
			{
				OFFSET	 0.000000	-17.570000	 0.000000
				CHANNELS 3 Zrotation Xrotation Yrotation
				End Site 
				{
					OFFSET	 0.000000	-3.250000	 0.000000
				}
			}
		}
	}
	JOINT Chest
	{
		OFFSET	 0.000000	 4.570000	 0.000000
		CHANNELS 3 Zrotation Xrotation Yrotation
		JOINT LeftCollar
		{
			OFFSET	 1.060000	 15.330000	 1.760000
			CHANNELS 3 Zrotation Xrotation Yrotation
			JOINT LeftShoulder
			{
				OFFSET	 5.810000	 0.000000	 0.000000
				CHANNELS 3 Zrotation Xrotation Yrotation
				JOINT LeftElbow
				{
					OFFSET	 0.000000	-12.080000	 0.000000
					CHANNELS 3 Zrotation Xrotation Yrotation
					JOINT LeftWrist
					{
						OFFSET	 0.000000	-9.820000	 0.000000
						CHANNELS 3 Zrotation Xrotation Yrotation
						End Site 
						{
							OFFSET	 0.000000	-7.369996	 0.000000
						}
					}
				}
			}
		}
		JOINT RightCollar
		{
			OFFSET	-1.060000	 15.330000	 1.760000
			CHANNELS 3 Zrotation Xrotation Yrotation
			JOINT RightShoulder
			{
				OFFSET	-6.060000	 0.000000	 0.000000
				CHANNELS 3 Zrotation Xrotation Yrotation
				JOINT RightElbow
				{
					OFFSET	 0.000000	-11.900000	 0.000000
					CHANNELS 3 Zrotation Xrotation Yrotation
					JOINT RightWrist
					{
						OFFSET	 0.000000	-9.520000	 0.000000
						CHANNELS 3 Zrotation Xrotation Yrotation
						End Site 
						{
							OFFSET	 0.000000	-7.140012	 0.000000
						}
					}
				}
			}
		}
		JOINT Neck
		{
			OFFSET	 0.000000	 17.620001	 0.000000
			CHANNELS 3 Zrotation Xrotation Yrotation
			JOINT Head
			{
				OFFSET	 0.000000	 5.190000	 0.000000
				CHANNELS 3 Zrotation Xrotation Yrotation
				End Site 
				{
					OFFSET	 0.000000	 4.140008	 0.000000
				}
			}
		}
	}
}

MOTION
Frames: 25
Frame Time: 0.033333
-21.6186 -1.4715 -63.2505 -18.3973 13.4196 57.798 44.0957 -64.8328 29.5198 -5.25294 49.9585 5.46448 -24.2014 -5.22479 -14.0765 -58.1357 -26.4166 -47.6443 3.17547 43.0341 6.60306 30.7789 -8.82233 11.9901 15.1799 39.405 1.08172 0 0 0 37.6438 -33.124 47.0623 -59.79 -44.4755 -39.1339 40.1153 -26.4004 10.3568 0 0 0 -111.326 -24.1348 -71.6931 10.9789 -26.8567 11.5549 -37.876 -16.351 -14.7509 0 0 0 -15.9546 -47.3921 -12.5328 
-22.0002 -1.7854 -63.0747 -17.3496 13.0892 57.5105 43.4615 -64.234 28.6251 -5.1808 50.4164 5.25058 -24.3565 -5.53169 -13.8802 -58.0128 -25.9954 -47.0418 3.46499 43.7107 6.43044 31.2683 -9.97787 12.8417 15.2361 39.9353 1.78997 0 0 0 37.0204 -32.0464 48.7466 -63.0948 -44.0983 -41.7864 39.9583 -26.0757 10.5358 0 0 0 -114.477 -23.5121 -73.9826 8.33579 -22.8211 9.61367 -36.1518 -16.3535 -14.1453 0 0 0 -16.6009 -46.73 -13.2715 
-22.2112 -1.9939 -62.8864 -16.2788 12.6405 57.0595 42.7893 -63.0177 27.6597 -5.26896 50.5747 5.18459 -24.452 -5.88591 -13.8627 -57.0964 -25.19 -45.96 3.51736 44.0569 6.46585 31.7151 -11.4621 13.7415 15.5558 40.6807 1.79309 0 0 0 38.1777 -31.4709 51.2258 -64.7067 -43.3055 -42.4955 39.9149 -26.1395 10.4029 0 0 0 -113.587 -23.6578 -73.9557 6.85339 -19.3285 7.99672 -35.1417 -16.462 -13.866 0 0 0 -17.3198 -46.622 -13.1905 
-22.2288 -2.1345 -62.7658 -14.9669 11.6859 56.5908 41.6602 -61.346 26.1666 -5.23298 50.6848 5.07574 -24.4164 -6.17987 -14.1221 -55.5521 -23.9111 -44.9584 2.97114 44.0562 7.25806 31.6976 -12.5835 14.4076 16.5306 41.7134 0.376835 0 0 0 40.2757 -30.9845 53.9342 -64.9159 -42.7082 -42.4552 39.8915 -25.8059 10.5782 0 0 0 -108.269 -25.1458 -71.7678 7.01881 -19.0867 7.72676 -35.2724 -16.785 -13.0838 0 0 0 -17.159 -46.7738 -11.5243 
-22.1082 -2.1395 -62.6227 -13.8575 10.6996 56.3071 40.4326 -59.6225 24.3113 -5.19714 50.6465 5.08502 -24.479 -6.50234 -14.3779 -54.0252 -22.519 -44.0468 2.29278 43.7096 8.42291 31.5562 -13.1842 14.7051 18.325 42.2575 -2.31825 0 0 0 43.582 -30.5852 57.0905 -63.5687 -42.4135 -41.0998 39.7347 -26.4258 10.5896 0 0 0 -100.233 -28.1526 -70.1147 8.23818 -21.1897 8.92475 -35.6467 -18.087 -11.6421 0 0 0 -16.2558 -46.5668 -8.49506 
-21.9074 -2.0918 -62.467 -12.9492 9.57108 56.1997 39.2952 -57.8882 22.2809 -5.09065 50.5525 5.15563 -24.6601 -6.74332 -14.6746 -52.5456 -20.7877 -42.1522 2.70999 43.0516 8.32062 31.4058 -13.492 14.3496 20.4174 42.0537 -5.9427 0 0 0 49.4326 -30.6034 61.1655 -59.6808 -42.2638 -37.9095 39.3099 -25.6549 11.2466 0 0 0 -89.8878 -31.8214 -68.7776 9.76038 -23.7478 10.3912 -35.9572 -20.1657 -10.3686 0 0 0 -14.584 -45.3538 -4.4545 
-21.7065 -2.024 -62.3515 -12.3205 8.40811 56.1978 38.5591 -56.335 20.5828 -4.94902 50.4578 5.24542 -24.8666 -6.92038 -15.0568 -51.0266 -19.3601 -40.5364 2.79378 42.3744 8.25825 31.3046 -13.3899 14.1155 21.9164 41.0893 -9.12198 0 0 0 57.6399 -31.729 65.6839 -52.9135 -40.9022 -32.3976 39.9114 -23.5444 12.6866 0 0 0 -77.6152 -35.5002 -64.5129 11.0508 -25.6322 11.0734 -36.5047 -21.4992 -9.36602 0 0 0 -12.9864 -43.6409 -0.925981 
-21.3926 -1.8809 -62.2636 -12.0785 7.49007 56.0224 38.5465 -55.0297 19.656 -4.92222 50.3085 5.41648 -24.986 -7.02844 -15.3471 -49.7383 -18.623 -39.0259 2.97937 42.143 7.91836 31.3576 -13.1961 13.7558 22.4616 40.0163 -11.0568 0 0 0 68.5338 -33.8772 71.1445 -42.8044 -37.594 -24.2342 40.7393 -21.0691 14.4603 0 0 0 -64.6315 -36.6846 -56.4763 11.923 -26.5028 11.058 -37.5279 -22.231 -9.62643 0 0 0 -11.4993 -42.1434 1.86146 
-21.1465 -1.8256 -62.1858 -12.131 6.70345 56.0536 38.7236 -54.1868 18.8519 -4.97342 50.2505 5.66564 -25.0969 -7.13981 -15.5634 -48.7808 -18.0968 -38.025 3.2456 42.1689 7.62139 31.2497 -12.8388 13.4253 22.5039 38.9693 -12.3989 0 0 0 81.1804 -35.9271 78.2046 -33.1295 -33.1223 -16.5642 40.6181 -20.2607 14.853 0 0 0 -53.8685 -35.528 -48.4361 12.4736 -27.0687 10.9322 -38.6628 -22.6597 -10.3551 0 0 0 -9.95562 -41.0971 4.04354 
-21.031 -1.8457 -62.1456 -12.2277 5.98754 56.3356 38.795 -53.8385 18.0786 -4.84838 50.4809 5.71285 -25.2067 -7.2296 -15.7702 -48.3887 -17.6916 -37.7152 3.50145 42.6995 7.39914 31.1665 -12.3056 13.3129 22.366 37.9359 -13.5453 0 0 0 92.4411 -36.2285 84.7511 -26.2569 -29.6998 -11.3825 40.1508 -19.7856 14.8279 0 0 0 -46.6139 -33.6908 -42.8259 13.3599 -28.2209 11.2841 -39.7153 -23.8897 -10.2305 0 0 0 -8.32888 -40.1004 5.731 
-20.9531 -1.8984 -62.1079 -12.3613 5.45633 56.6897 38.772 -53.7322 17.3073 -4.81437 50.6877 5.83814 -25.3004 -7.2927 -15.9109 -48.4037 -17.5132 -37.9885 3.63532 43.4603 7.34356 31.141 -11.7888 13.3357 22.0219 37.0331 -14.4247 0 0 0 102.863 -35.8301 90.7229 -21.3297 -26.2913 -7.52395 40.1267 -19.4859 14.5977 0 0 0 -41.316 -31.7694 -38.8716 14.4036 -29.8581 12.1711 -40.7045 -25.1153 -9.66956 0 0 0 -6.86835 -39.4088 6.8877 
-20.9933 -2.0566 -62.1833 -12.5578 5.45825 56.8375 38.9019 -54.1878 17.5489 -4.43744 51.2072 5.54151 -25.3727 -7.41021 -16.0362 -49.2369 -18.3962 -38.708 3.83467 44.3617 7.07177 30.944 -11.0226 13.0017 21.2455 36.6757 -14.1977 0 0 0 110.846 -35.8499 96.1444 -17.8276 -23.0568 -4.60278 39.9673 -18.1198 14.6908 0 0 0 -40.7872 -31.8241 -38.1491 14.9883 -30.1962 12.7931 -41.2921 -25.8721 -9.45833 0 0 0 -6.08725 -39.4939 6.61247 
-21.159 -2.2425 -62.2988 -12.6389 5.77788 56.8925 38.9307 -54.841 18.1356 -4.19838 51.6689 5.25894 -25.3194 -7.47104 -16.1345 -50.4534 -19.5375 -39.4374 4.00638 45.3883 6.77851 30.7031 -10.4221 12.7203 21.0197 36.9416 -14.0262 0 0 0 113.943 -36.2809 99.5341 -16.491 -20.6739 -2.96808 40.6798 -17.9404 14.2366 0 0 0 -44.3877 -33.6159 -40.0822 15.1767 -29.7343 13.1686 -41.9595 -26.7285 -8.85858 0 0 0 -6.22227 -40.5245 5.54351 
-21.3775 -2.363 -62.4545 -12.5951 6.44222 56.8312 38.9686 -55.673 19.2409 -3.95475 52.0534 4.79886 -25.1312 -7.33547 -16.0193 -51.9858 -20.7492 -40.2967 4.07925 46.2318 6.63565 30.4323 -9.86945 12.3715 21.2268 38.0793 -13.7845 0 0 0 113.707 -36.7449 100.959 -16.3484 -20.607 -2.59932 40.3488 -19.0711 13.3934 0 0 0 -52.7346 -36.983 -45.1426 14.6159 -28.0348 12.7402 -42.108 -27.2653 -8.14714 0 0 0 -7.1319 -42.4608 3.81334 
-21.6889 -2.579 -62.6102 -12.3804 7.13852 56.6772 38.9669 -56.5307 20.4389 -3.86733 52.3401 4.55919 -24.8854 -7.00391 -15.8861 -53.555 -21.8686 -41.5053 3.78103 46.6425 7.01711 30.042 -9.34005 12.074 21.5055 39.61 -13.3328 0 0 0 110.907 -37.4831 100.612 -18.4977 -22.9543 -4.25008 39.8469 -20.8099 12.27 0 0 0 -63.9069 -39.8679 -52.2394 13.4207 -26.5296 11.8417 -41.7089 -27.6447 -6.84571 0 0 0 -8.70337 -44.6172 1.52001 
-22.0505 -2.7171 -62.7483 -12.2618 8.16075 56.4419 39.4384 -57.4708 22.3252 -3.80638 52.526 4.37331 -24.755 -6.51792 -15.8569 -55.315 -23.3426 -43.0341 3.21288 46.9761 7.52334 29.7496 -9.02775 11.829 21.8725 41.2661 -12.6698 0 0 0 106.37 -38.4769 98.6563 -22.0048 -26.568 -6.93998 40.0376 -21.8836 11.5162 0 0 0 -78.0553 -41.3367 -61.0611 11.907 -24.3451 10.5154 -41.271 -27.7227 -5.51625 0 0 0 -10.8611 -46.5558 -0.92404 
-22.5 -2.8301 -62.8311 -12.3688 9.41607 56.0611 40.628 -58.7246 25.0154 -3.74253 52.5248 4.28164 -24.6481 -5.70318 -15.7427 -57.1349 -25.233 -44.8943 2.51247 47.1997 8.14867 29.3792 -8.7676 11.5051 22.1536 43.0188 -12.1693 0 0 0 101.432 -39.4004 96.9074 -25.63 -29.6482 -9.88462 40.4994 -22.3924 11.2164 0 0 0 -93.0278 -42.0749 -70.9852 10.4875 -22.6296 9.41368 -40.8271 -26.72 -4.30931 0 0 0 -12.5932 -48.0474 -2.70461 
-22.9997 -2.9104 -62.8889 -12.487 10.6853 55.7298 42.2374 -59.8935 28.1482 -3.55733 52.4566 4.04651 -24.6149 -4.74875 -15.6838 -58.717 -27.016 -46.5667 2.00057 47.3594 8.54468 28.8435 -8.6323 11.1467 22.5537 44.6414 -12.0234 0 0 0 95.7881 -39.8941 94.4004 -28.8689 -32.4268 -12.1242 40.9474 -23.1151 11.1539 0 0 0 -107.604 -41.5469 -80.2919 9.21764 -20.7484 7.81822 -40.3937 -26.0102 -2.97361 0 0 0 -14.128 -49.2611 -3.98 
-23.5422 -2.8677 -62.7809 -12.6012 11.6679 55.6207 43.7954 -60.6323 30.3685 -3.87577 51.838 4.36117 -24.72 -3.58856 -15.5264 -59.4783 -28.0713 -47.8298 1.54461 47.5678 9.0576 28.2684 -8.94537 11.1368 23.7139 45.8793 -13.284 0 0 0 89.8349 -39.2571 90.5218 -30.8655 -34.628 -13.47 41.7697 -23.964 11.9292 0 0 0 -117.065 -40.246 -86.8027 8.77114 -20.8066 7.00575 -40.2943 -25.889 -0.824333 0 0 0 -14.893 -50.0058 -3.73855 
-24.1047 -2.8351 -62.5926 -12.6731 12.5158 55.3615 45.4048 -61.0712 32.417 -3.96143 50.7207 4.37531 -24.9786 -2.22342 -14.9748 -59.9065 -29.2335 -49.0173 1.0606 47.7614 9.57588 27.5413 -9.32377 11.0903 24.2722 46.9872 -14.2616 0 0 0 85.5786 -38.4034 87.2022 -31.0658 -35.3809 -13.6767 42.8271 -23.3035 13.1797 0 0 0 -122.7 -38.3957 -90.9524 8.81148 -21.799 6.7378 -40.0009 -25.3151 1.00391 0 0 0 -15.3408 -50.38 -3.12923 
-24.6948 -2.6442 -62.2059 -12.8329 13.3748 55.2219 47.0576 -61.128 33.9195 -4.34679 48.9278 4.71086 -25.251 -0.551331 -14.0775 -59.8132 -30.2509 -50.2852 0.47912 47.7474 10.145 26.6327 -9.8692 11.0302 24.3759 47.5524 -14.8952 0 0 0 80.7543 -37.5681 83.7822 -29.9647 -34.7869 -12.7043 44.1265 -22.4492 15.005 0 0 0 -122.536 -36.4639 -90.8782 9.37271 -23.4274 7.02333 -40.1208 -24.5006 1.68144 0 0 0 -15.6125 -50.4063 -2.24655 
-25.2824 -2.2826 -61.7538 -13.1238 14.259 55.3838 48.5881 -61.2442 35.2133 -4.50311 47.1435 4.87684 -25.1154 1.42339 -12.3502 -59.5359 -31.0175 -51.43 0.114808 47.7023 10.4225 25.5988 -10.4695 10.8922 24.0173 47.623 -15.1446 0 0 0 76.5642 -36.4506 80.8802 -28.8889 -34.1271 -11.5279 45.0645 -21.6515 16.2609 0 0 0 -120.153 -34.8286 -89.4662 10.1095 -23.9336 7.68935 -40.8509 -23.7836 1.32734 0 0 0 -15.6152 -50.0309 -1.36486 
-25.8826 -1.9009 -61.2189 -13.2415 14.7814 55.8367 49.3685 -61.391 35.6651 -4.77134 45.5679 5.12903 -24.5885 3.85406 -10.2681 -58.7298 -31.1687 -52.0699 0.0117684 47.5319 10.529 24.46 -11.0004 10.5161 23.5135 47.5941 -15.4059 0 0 0 73.5507 -35.3203 79.2357 -28.4893 -33.4653 -11.3874 45.8179 -21.6382 17.1159 0 0 0 -115.277 -33.2749 -87.1506 11.1156 -25.1372 8.8837 -41.8349 -22.9343 0.805474 0 0 0 -15.3907 -49.4354 -0.687686 
-26.4727 -1.5268 -60.6891 -13.065 14.9054 56.653 48.4414 -60.818 35.2141 -4.95492 45.008 5.41458 -24.1121 5.36271 -9.7292 -57.4604 -30.7658 -51.9774 0.234904 47.4056 10.3936 23.2115 -11.6521 9.87028 22.9269 47.3666 -15.4234 0 0 0 71.9669 -34.8506 78.1467 -28.0323 -32.9519 -11.2073 46.4792 -21.7338 17.6466 0 0 0 -109.659 -30.9772 -84.2194 11.7726 -25.7717 9.61658 -42.6567 -22.3708 -0.234877 0 0 0 -15.4034 -48.6472 -0.657196 
-27.0226 -1.1099 -60.119 -13.0097 14.9022 57.6395 46.7826 -59.6901 34.0955 -5.01995 45.0917 5.68123 -24.2879 6.55303 -9.64763 -56.1402 -30.2207 -51.8134 0.613127 47.3394 10.0845 22.3145 -11.7209 9.26074 22.3994 47.0916 -15.3267 0 0 0 72.3915 -35.075 77.9888 -26.7669 -31.9922 -10.3262 47.1129 -21.7129 18.1971 0 0 0 -104.646 -27.5673 -82.73 12.6182 -26.6791 10.4576 -43.4898 -21.4976 -1.80425 0 0 0 -15.2452 -47.7706 -0.766416 
